<svg version="1.1" viewBox="0.0 0.0 96.0 96.0" fill="none" stroke="none" stroke-linecap="square" stroke-miterlimit="10" xmlns:xlink="http://www.w3.org/1999/xlink" xmlns="http://www.w3.org/2000/svg"><clipPath id="p.0"><path d="m0 0l96.0 0l0 96.0l-96.0 0l0 -96.0z" clip-rule="nonzero"/></clipPath><g clip-path="url(#p.0)"><path fill="#cccccc" d="m0 0l96.0 0l0 96.0l-96.0 0z" fill-rule="evenodd"/><path fill="#666666" d="m-0.0010498688 -0.0010498688l9.606299 0l0 9.606299l-9.606299 0z" fill-rule="evenodd"/><path fill="#666666" d="m9.6 9.6l9.606298 0l0 9.606298l-9.606298 0z" fill-rule="evenodd"/><path fill="#666666" d="m19.2 19.2l9.606298 0l0 9.606298l-9.606298 0z" fill-rule="evenodd"/><path fill="#666666" d="m28.8 28.8l9.6063 0l0 9.6063l-9.6063 0z" fill-rule="evenodd"/><path fill="#666666" d="m38.4 38.4l9.606297 0l0 9.606297l-9.606297 0z" fill-rule="evenodd"/><path fill="#666666" d="m48.0 48.0l9.6063 0l0 9.6063l-9.6063 0z" fill-rule="evenodd"/><path fill="#666666" d="m57.6 57.605247l9.6063 0l0 9.6063l-9.6063 0z" fill-rule="evenodd"/><path fill="#666666" d="m67.2 67.205246l9.6063 0l0 9.6063l-9.6063 0z" fill-rule="evenodd"/><path fill="#666666" d="m76.8 76.80525l9.606293 0l0 9.606293l-9.606293 0z" fill-rule="evenodd"/><path fill="#666666" d="m86.4 86.40525l9.6063 0l0 9.6063l-9.6063 0z" fill-rule="evenodd"/><path fill="#666666" d="m96.00893 0.0015748031l0 9.606299l-9.6063 0l0 -9.606299z" fill-rule="evenodd"/><path fill="#666666" d="m86.407875 9.602625l0 9.606298l-9.6063 0l0 -9.606298z" fill-rule="evenodd"/><path fill="#666666" d="m76.80788 19.202625l0 9.606298l-9.6063 0l0 -9.606298z" fill-rule="evenodd"/><path fill="#666666" d="m67.20787 28.802624l0 9.6063l-9.606297 0l0 -9.6063z" fill-rule="evenodd"/><path fill="#666666" d="m57.607876 38.402626l0 9.606297l-9.6063 0l0 -9.606297z" fill-rule="evenodd"/><path fill="#666666" d="m48.007874 48.002625l0 9.6063l-9.6063 0l0 -9.6063z" fill-rule="evenodd"/><path fill="#666666" d="m38.402626 57.602623l0 9.6063l-9.6063 0l0 -9.6063z" fill-rule="evenodd"/><path fill="#666666" d="m28.802624 67.20262l0 9.6063l-9.606298 0l0 -9.6063z" fill-rule="evenodd"/><path fill="#666666" d="m19.202625 76.80263l0 9.606293l-9.606299 0l0 -9.606293z" fill-rule="evenodd"/><path fill="#666666" d="m9.602625 86.402626l0 9.6063l-9.606299 0l0 -9.6063z" fill-rule="evenodd"/></g></svg>