<svg version="1.1" viewBox="0.0 0.0 96.0 96.0" fill="none" stroke="none" stroke-linecap="square" stroke-miterlimit="10" xmlns:xlink="http://www.w3.org/1999/xlink" xmlns="http://www.w3.org/2000/svg"><clipPath id="p.0"><path d="m0 0l96.0 0l0 96.0l-96.0 0l0 -96.0z" clip-rule="nonzero"/></clipPath><g clip-path="url(#p.0)"><path fill="#996633" d="m0 0l96.0 0l0 96.0l-96.0 0z" fill-rule="evenodd"/><path fill="#ff9933" d="m0 0l9.606299 0l0 9.606299l-9.606299 0z" fill-rule="evenodd"/><path fill="#ff9933" d="m76.8 67.2l9.606293 0l0 9.6063l-9.606293 0z" fill-rule="evenodd"/><path fill="#ff9933" d="m19.2 57.6l9.606298 0l0 9.6063l-9.606298 0z" fill-rule="evenodd"/><path fill="#cc9900" d="m48.0 19.2l9.6063 0l0 9.606298l-9.6063 0z" fill-rule="evenodd"/><path fill="#cc9900" d="m28.805775 67.2l9.6063 0l0 9.6063l-9.6063 0z" fill-rule="evenodd"/><path fill="#cc9900" d="m57.6 48.0l9.6063 0l0 9.6063l-9.6063 0z" fill-rule="evenodd"/><path fill="#cc6600" d="m19.2 28.805775l9.606298 0l0 9.6063l-9.606298 0z" fill-rule="evenodd"/><path fill="#cc6600" d="m86.40578 0l9.606293 0l0 9.606299l-9.606293 0z" fill-rule="evenodd"/><path fill="#cc6600" d="m57.60105 19.199474l9.6063 0l0 9.6063l-9.6063 0z" fill-rule="evenodd"/><path fill="#e4e4cc" d="m57.60105 38.412598l9.6063 0l0 9.6063l-9.6063 0z" fill-rule="evenodd"/><path fill="#e4e4cc" d="m67.20735 -0.012598425l9.6063 0l0 9.606298l-9.6063 0z" fill-rule="evenodd"/><path fill="#999999" d="m57.6 -0.012598425l9.6063 0l0 9.606298l-9.6063 0z" fill-rule="evenodd"/><path fill="#999999" d="m38.400787 28.8063l9.6063 0l0 9.606298l-9.6063 0z" fill-rule="evenodd"/><path fill="#ccb199" d="m28.8063 28.805775l9.606298 0l0 9.6063l-9.606298 0z" fill-rule="evenodd"/><path fill="#666666" d="m67.20735 76.80105l9.6063 0l0 9.6063l-9.6063 0z" fill-rule="evenodd"/><path fill="#ccb199" d="m5.249344E-4 9.593176l9.606299 0l0 9.606298l-9.606299 0z" fill-rule="evenodd"/><path fill="#ccb199" d="m19.2 48.002625l9.606298 0l0 9.6063l-9.606298 0z" fill-rule="evenodd"/><path fill="#ccb199" d="m28.8063 57.60105l9.606298 0l0 9.6063l-9.606298 0z" fill-rule="evenodd"/><path fill="#ccb199" d="m76.80105 0l9.6063 0l0 9.606299l-9.6063 0z" fill-rule="evenodd"/></g></svg>