<svg version="1.1" viewBox="0.0 0.0 96.0 96.0" fill="none" stroke="none" stroke-linecap="square" stroke-miterlimit="10" xmlns:xlink="http://www.w3.org/1999/xlink" xmlns="http://www.w3.org/2000/svg"><clipPath id="p.0"><path d="m0 0l96.0 0l0 96.0l-96.0 0l0 -96.0z" clip-rule="nonzero"/></clipPath><g clip-path="url(#p.0)"><path fill="#ffcc66" d="m0 0l96.0 0l0 96.0l-96.0 0z" fill-rule="evenodd"/><path fill="#ffcc99" d="m-0.0010498688 -0.0010498688l9.606299 0l0 9.606299l-9.606299 0z" fill-rule="evenodd"/><path fill="#ffcc99" d="m9.6 9.6l19.212599 0l0 19.212599l-19.212599 0z" fill-rule="evenodd"/><path fill="#ffcc99" d="m28.8 28.8l9.6063 0l0 9.6063l-9.6063 0z" fill-rule="evenodd"/><path fill="#ffcc99" d="m38.4 38.4l9.606297 0l0 9.606297l-9.606297 0z" fill-rule="evenodd"/><path fill="#ffcc99" d="m48.0 48.0l9.6063 0l0 9.6063l-9.6063 0z" fill-rule="evenodd"/><path fill="#ffcc99" d="m57.6 57.605247l9.6063 0l0 9.6063l-9.6063 0z" fill-rule="evenodd"/><path fill="#ffcc99" d="m86.4 86.40525l9.6063 0l0 9.6063l-9.6063 0z" fill-rule="evenodd"/><path fill="#ffcc99" d="m96.00893 0.0015748031l0 9.606299l-9.6063 0l0 -9.606299z" fill-rule="evenodd"/><path fill="#ffcc99" d="m67.20787 28.802624l0 9.6063l-9.606297 0l0 -9.6063z" fill-rule="evenodd"/><path fill="#ffcc99" d="m57.607876 38.402626l0 9.606297l-9.6063 0l0 -9.606297z" fill-rule="evenodd"/><path fill="#ffcc99" d="m48.007874 48.002625l0 9.6063l-9.6063 0l0 -9.6063z" fill-rule="evenodd"/><path fill="#ffcc99" d="m38.402626 57.602623l0 9.6063l-9.6063 0l0 -9.6063z" fill-rule="evenodd"/><path fill="#ffcc99" d="m9.602625 86.402626l0 9.6063l-9.606299 0l0 -9.6063z" fill-rule="evenodd"/><path fill="#cc9933" d="m28.800526 38.40211l9.6063 0l0 19.2126l-9.6063 0z" fill-rule="evenodd"/><path fill="#cc9933" d="m57.60105 38.4008l9.6063 0l0 19.2126l-9.6063 0z" fill-rule="evenodd"/><path fill="#cc9933" d="m38.39895 57.614174l19.2126 0l0 9.6063l-19.2126 0z" fill-rule="evenodd"/><path fill="#cc9933" d="m38.397636 28.800526l19.2126 0l0 9.6063l-19.2126 0z" fill-rule="evenodd"/><path fill="#ffcc99" d="m67.1958 9.597375l19.2126 0l0 19.2126l-19.2126 0z" fill-rule="evenodd"/><path fill="#ffcc99" d="m9.59475 67.227295l19.212597 0l0 19.2126l-19.212597 0z" fill-rule="evenodd"/><path fill="#ffcc99" d="m67.19055 67.22467l19.2126 0l0 19.2126l-19.2126 0z" fill-rule="evenodd"/></g></svg>