<svg version="1.1" viewBox="0.0 0.0 96.0 96.0" fill="none" stroke="none" stroke-linecap="square" stroke-miterlimit="10" xmlns:xlink="http://www.w3.org/1999/xlink" xmlns="http://www.w3.org/2000/svg"><clipPath id="p.0"><path d="m0 0l96.0 0l0 96.0l-96.0 0l0 -96.0z" clip-rule="nonzero"/></clipPath><g clip-path="url(#p.0)"><path fill="#000000" fill-opacity="0.0" d="m0 0l96.0 0l0 96.0l-96.0 0z" fill-rule="evenodd"/><path fill="#cccccc" d="m-0.0044782152 -1.3648294E-5l6.4566927 0l0 6.1417327l-6.4566927 0z" fill-rule="evenodd"/><path fill="#cccccc" d="m5.9589944 -1.3648294E-5l6.456693 0l0 6.1417327l-6.456693 0z" fill-rule="evenodd"/><path fill="#999999" d="m5.9589944 5.9797773l6.456693 0l0 6.141732l-6.456693 0z" fill-rule="evenodd"/><path fill="#cccccc" d="m-0.0044782152 5.9797773l5.9527555 0l0 6.141732l-5.9527555 0z" fill-rule="evenodd"/><path fill="#cccccc" d="m-0.0044782152 11.959568l6.4566927 0l0 6.1417313l-6.4566927 0z" fill-rule="evenodd"/><path fill="#cccccc" d="m5.9589944 11.959568l6.456693 0l0 6.1417313l-6.456693 0z" fill-rule="evenodd"/><path fill="#cccccc" d="m5.9589944 17.939358l6.456693 0l0 6.141733l-6.456693 0z" fill-rule="evenodd"/><path fill="#cccccc" d="m-0.0044782152 17.939358l5.9527555 0l0 6.141733l-5.9527555 0z" fill-rule="evenodd"/><path fill="#cccccc" d="m11.922466 11.959568l6.4566936 0l0 6.1417313l-6.4566936 0z" fill-rule="evenodd"/><path fill="#999999" d="m17.885939 11.959568l6.4566936 0l0 6.1417313l-6.4566936 0z" fill-rule="evenodd"/><path fill="#cccccc" d="m17.885939 17.939358l6.4566936 0l0 6.141733l-6.4566936 0z" fill-rule="evenodd"/><path fill="#cccccc" d="m11.922466 17.939358l5.952757 0l0 6.141733l-5.952757 0z" fill-rule="evenodd"/><path fill="#999999" d="m23.849411 11.959568l6.4566936 0l0 6.1417313l-6.4566936 0z" fill-rule="evenodd"/><path fill="#999999" d="m29.812883 11.959568l6.4566936 0l0 6.1417313l-6.4566936 0z" fill-rule="evenodd"/><path fill="#cccccc" d="m29.812883 17.939358l6.4566936 0l0 6.141733l-6.4566936 0z" fill-rule="evenodd"/><path fill="#cccccc" d="m23.849411 17.939358l5.952757 0l0 6.141733l-5.952757 0z" fill-rule="evenodd"/><path fill="#999999" d="m35.776356 11.959568l6.4566917 0l0 6.1417313l-6.4566917 0z" fill-rule="evenodd"/><path fill="#999999" d="m41.73983 11.959568l6.4566917 0l0 6.1417313l-6.4566917 0z" fill-rule="evenodd"/><path fill="#cccccc" d="m41.73983 17.939358l6.4566917 0l0 6.141733l-6.4566917 0z" fill-rule="evenodd"/><path fill="#cccccc" d="m35.776356 17.939358l5.952755 0l0 6.141733l-5.952755 0z" fill-rule="evenodd"/><path fill="#cccccc" d="m-0.0044782152 23.91915l6.4566927 0l0 6.1417313l-6.4566927 0z" fill-rule="evenodd"/><path fill="#cccccc" d="m5.9589944 23.91915l6.456693 0l0 6.1417313l-6.456693 0z" fill-rule="evenodd"/><path fill="#cccccc" d="m5.9589944 29.89894l6.456693 0l0 6.141733l-6.456693 0z" fill-rule="evenodd"/><path fill="#cccccc" d="m-0.0044782152 29.89894l5.9527555 0l0 6.141733l-5.9527555 0z" fill-rule="evenodd"/><path fill="#cccccc" d="m11.922466 23.91915l6.4566936 0l0 6.1417313l-6.4566936 0z" fill-rule="evenodd"/><path fill="#cccccc" d="m17.885939 23.91915l6.4566936 0l0 6.1417313l-6.4566936 0z" fill-rule="evenodd"/><path fill="#cccccc" d="m17.885939 29.89894l6.4566936 0l0 6.141733l-6.4566936 0z" fill-rule="evenodd"/><path fill="#cccccc" d="m11.922466 29.89894l5.952757 0l0 6.141733l-5.952757 0z" fill-rule="evenodd"/><path fill="#cccccc" d="m-0.0044782152 35.87873l6.4566927 0l0 6.1417313l-6.4566927 0z" fill-rule="evenodd"/><path fill="#cccccc" d="m5.9589944 35.87873l6.456693 0l0 6.1417313l-6.456693 0z" fill-rule="evenodd"/><path fill="#cccccc" d="m5.9589944 41.85852l6.456693 0l0 6.1417313l-6.456693 0z" fill-rule="evenodd"/><path fill="#cccccc" d="m-0.0044782152 41.85852l5.9527555 0l0 6.1417313l-5.9527555 0z" fill-rule="evenodd"/><path fill="#999999" d="m11.922466 35.87873l6.4566936 0l0 6.1417313l-6.4566936 0z" fill-rule="evenodd"/><path fill="#b7b7b7" d="m17.885939 35.87873l6.4566936 0l0 6.1417313l-6.4566936 0z" fill-rule="evenodd"/><path fill="#cccccc" d="m17.885939 41.85852l6.4566936 0l0 6.1417313l-6.4566936 0z" fill-rule="evenodd"/><path fill="#cccccc" d="m11.922466 41.85852l5.952757 0l0 6.1417313l-5.952757 0z" fill-rule="evenodd"/><path fill="#cccccc" d="m23.849411 23.91915l6.4566936 0l0 6.1417313l-6.4566936 0z" fill-rule="evenodd"/><path fill="#666666" d="m29.812883 23.91915l6.4566936 0l0 6.1417313l-6.4566936 0z" fill-rule="evenodd"/><path fill="#cccccc" d="m29.812883 29.89894l6.4566936 0l0 6.141733l-6.4566936 0z" fill-rule="evenodd"/><path fill="#cccccc" d="m23.849411 29.89894l5.952757 0l0 6.141733l-5.952757 0z" fill-rule="evenodd"/><path fill="#666666" d="m35.776356 23.91915l6.4566917 0l0 6.1417313l-6.4566917 0z" fill-rule="evenodd"/><path fill="#666666" d="m41.73983 23.91915l6.4566917 0l0 6.1417313l-6.4566917 0z" fill-rule="evenodd"/><path fill="#cccccc" d="m41.73983 29.89894l6.4566917 0l0 6.141733l-6.4566917 0z" fill-rule="evenodd"/><path fill="#cccccc" d="m35.776356 29.89894l5.952755 0l0 6.141733l-5.952755 0z" fill-rule="evenodd"/><path fill="#d9d9d9" d="m23.849411 35.87873l6.4566936 0l0 6.1417313l-6.4566936 0z" fill-rule="evenodd"/><path fill="#d9d9d9" d="m29.812883 35.87873l6.4566936 0l0 6.1417313l-6.4566936 0z" fill-rule="evenodd"/><path fill="#cccccc" d="m29.812883 41.85852l6.4566936 0l0 6.1417313l-6.4566936 0z" fill-rule="evenodd"/><path fill="#cccccc" d="m23.849411 41.85852l5.952757 0l0 6.1417313l-5.952757 0z" fill-rule="evenodd"/><path fill="#cccccc" d="m35.776356 35.87873l6.4566917 0l0 6.1417313l-6.4566917 0z" fill-rule="evenodd"/><path fill="#cccccc" d="m41.73983 35.87873l6.4566917 0l0 6.1417313l-6.4566917 0z" fill-rule="evenodd"/><path fill="#cccccc" d="m41.73983 41.85852l6.4566917 0l0 6.1417313l-6.4566917 0z" fill-rule="evenodd"/><path fill="#cccccc" d="m35.776356 41.85852l5.952755 0l0 6.1417313l-5.952755 0z" fill-rule="evenodd"/><path fill="#999999" d="m47.7033 11.959568l6.4566917 0l0 6.1417313l-6.4566917 0z" fill-rule="evenodd"/><path fill="#cccccc" d="m53.666775 11.959568l6.4566917 0l0 6.1417313l-6.4566917 0z" fill-rule="evenodd"/><path fill="#cccccc" d="m53.666775 17.939358l6.4566917 0l0 6.141733l-6.4566917 0z" fill-rule="evenodd"/><path fill="#cccccc" d="m47.7033 17.939358l5.952755 0l0 6.141733l-5.952755 0z" fill-rule="evenodd"/><path fill="#cccccc" d="m59.630245 11.959568l6.4566917 0l0 6.1417313l-6.4566917 0z" fill-rule="evenodd"/><path fill="#cccccc" d="m65.59372 11.959568l6.4566956 0l0 6.1417313l-6.4566956 0z" fill-rule="evenodd"/><path fill="#cccccc" d="m65.59372 17.939358l6.4566956 0l0 6.141733l-6.4566956 0z" fill-rule="evenodd"/><path fill="#cccccc" d="m59.630245 17.939358l5.952755 0l0 6.141733l-5.952755 0z" fill-rule="evenodd"/><path fill="#cccccc" d="m71.55719 11.959568l6.4566956 0l0 6.1417313l-6.4566956 0z" fill-rule="evenodd"/><path fill="#cccccc" d="m77.52066 11.959568l6.4566956 0l0 6.1417313l-6.4566956 0z" fill-rule="evenodd"/><path fill="#cccccc" d="m77.52066 17.939358l6.4566956 0l0 6.141733l-6.4566956 0z" fill-rule="evenodd"/><path fill="#cccccc" d="m71.55719 17.939358l5.952759 0l0 6.141733l-5.952759 0z" fill-rule="evenodd"/><path fill="#cccccc" d="m83.48414 11.959568l6.456688 0l0 6.1417313l-6.456688 0z" fill-rule="evenodd"/><path fill="#cccccc" d="m89.44761 11.959568l6.4566956 0l0 6.1417313l-6.4566956 0z" fill-rule="evenodd"/><path fill="#cccccc" d="m89.44761 17.939358l6.4566956 0l0 6.141733l-6.4566956 0z" fill-rule="evenodd"/><path fill="#cccccc" d="m83.48414 17.939358l5.952751 0l0 6.141733l-5.952751 0z" fill-rule="evenodd"/><path fill="#999999" d="m47.7033 23.91915l6.4566917 0l0 6.1417313l-6.4566917 0z" fill-rule="evenodd"/><path fill="#666666" d="m53.666775 23.91915l6.4566917 0l0 6.1417313l-6.4566917 0z" fill-rule="evenodd"/><path fill="#cccccc" d="m53.666775 29.89894l6.4566917 0l0 6.141733l-6.4566917 0z" fill-rule="evenodd"/><path fill="#cccccc" d="m47.7033 29.89894l5.952755 0l0 6.141733l-5.952755 0z" fill-rule="evenodd"/><path fill="#666666" d="m59.630245 23.91915l6.4566917 0l0 6.1417313l-6.4566917 0z" fill-rule="evenodd"/><path fill="#666666" d="m65.59372 23.91915l6.4566956 0l0 6.1417313l-6.4566956 0z" fill-rule="evenodd"/><path fill="#cccccc" d="m65.10068 29.939299l6.456688 0l0 6.141733l-6.456688 0z" fill-rule="evenodd"/><path fill="#cccccc" d="m59.137203 29.939299l5.952755 0l0 6.141733l-5.952755 0z" fill-rule="evenodd"/><path fill="#cccccc" d="m47.7033 35.87873l6.4566917 0l0 6.1417313l-6.4566917 0z" fill-rule="evenodd"/><path fill="#cccccc" d="m53.666775 35.87873l6.4566917 0l0 6.1417313l-6.4566917 0z" fill-rule="evenodd"/><path fill="#b7b7b7" d="m53.666775 41.85852l6.4566917 0l0 6.1417313l-6.4566917 0z" fill-rule="evenodd"/><path fill="#b7b7b7" d="m47.7033 41.85852l5.952755 0l0 6.1417313l-5.952755 0z" fill-rule="evenodd"/><path fill="#cccccc" d="m59.137203 35.91909l6.4566917 0l0 6.1417313l-6.4566917 0z" fill-rule="evenodd"/><path fill="#cccccc" d="m65.10068 35.91909l6.456688 0l0 6.1417313l-6.456688 0z" fill-rule="evenodd"/><path fill="#cccccc" d="m65.10068 41.89888l6.456688 0l0 6.1417313l-6.456688 0z" fill-rule="evenodd"/><path fill="#cccccc" d="m59.137203 41.89888l5.952755 0l0 6.1417313l-5.952755 0z" fill-rule="evenodd"/><path fill="#999999" d="m71.55719 23.91915l6.4566956 0l0 6.1417313l-6.4566956 0z" fill-rule="evenodd"/><path fill="#cccccc" d="m77.52066 23.91915l6.4566956 0l0 6.1417313l-6.4566956 0z" fill-rule="evenodd"/><path fill="#cccccc" d="m77.02762 29.939299l6.4566956 0l0 6.141733l-6.4566956 0z" fill-rule="evenodd"/><path fill="#cccccc" d="m71.06415 29.939299l5.952759 0l0 6.141733l-5.952759 0z" fill-rule="evenodd"/><path fill="#cccccc" d="m83.48414 23.91915l6.456688 0l0 6.1417313l-6.456688 0z" fill-rule="evenodd"/><path fill="#cccccc" d="m89.44761 23.91915l6.4566956 0l0 6.1417313l-6.4566956 0z" fill-rule="evenodd"/><path fill="#cccccc" d="m89.24156 29.939299l6.740158 0l0 6.141733l-6.740158 0z" fill-rule="evenodd"/><path fill="#cccccc" d="m82.99109 29.939299l6.2362213 0l0 6.141733l-6.2362213 0z" fill-rule="evenodd"/><path fill="#cccccc" d="m71.06415 35.91909l6.4566956 0l0 6.1417313l-6.4566956 0z" fill-rule="evenodd"/><path fill="#cccccc" d="m77.02762 35.91909l6.4566956 0l0 6.1417313l-6.4566956 0z" fill-rule="evenodd"/><path fill="#cccccc" d="m77.02762 41.89888l6.4566956 0l0 6.1417313l-6.4566956 0z" fill-rule="evenodd"/><path fill="#cccccc" d="m71.06415 41.89888l5.952759 0l0 6.1417313l-5.952759 0z" fill-rule="evenodd"/><path fill="#cccccc" d="m82.99109 35.91909l6.4566956 0l0 6.1417313l-6.4566956 0z" fill-rule="evenodd"/><path fill="#cccccc" d="m88.95457 35.91909l6.456688 0l0 6.1417313l-6.456688 0z" fill-rule="evenodd"/><path fill="#cccccc" d="m88.95457 41.89888l6.456688 0l0 6.1417313l-6.456688 0z" fill-rule="evenodd"/><path fill="#cccccc" d="m82.99109 41.89888l5.952759 0l0 6.1417313l-5.952759 0z" fill-rule="evenodd"/><path fill="#cccccc" d="m-0.0044782152 47.999744l6.4566927 0l0 6.141735l-6.4566927 0z" fill-rule="evenodd"/><path fill="#cccccc" d="m5.9589944 47.999744l6.456693 0l0 6.141735l-6.456693 0z" fill-rule="evenodd"/><path fill="#cccccc" d="m5.9589944 53.979538l6.456693 0l0 6.1417313l-6.456693 0z" fill-rule="evenodd"/><path fill="#cccccc" d="m-0.0044782152 53.979538l5.9527555 0l0 6.1417313l-5.9527555 0z" fill-rule="evenodd"/><path fill="#cccccc" d="m11.922466 47.999744l6.4566936 0l0 6.141735l-6.4566936 0z" fill-rule="evenodd"/><path fill="#cccccc" d="m17.885939 47.999744l6.4566936 0l0 6.141735l-6.4566936 0z" fill-rule="evenodd"/><path fill="#cccccc" d="m17.885939 53.979538l6.4566936 0l0 6.1417313l-6.4566936 0z" fill-rule="evenodd"/><path fill="#cccccc" d="m11.922466 53.979538l5.952757 0l0 6.1417313l-5.952757 0z" fill-rule="evenodd"/><path fill="#cccccc" d="m-0.0044782152 59.959328l6.4566927 0l0 6.1417313l-6.4566927 0z" fill-rule="evenodd"/><path fill="#cccccc" d="m5.9589944 59.959328l6.456693 0l0 6.1417313l-6.456693 0z" fill-rule="evenodd"/><path fill="#cccccc" d="m5.9589944 65.93912l6.456693 0l0 6.1417313l-6.456693 0z" fill-rule="evenodd"/><path fill="#cccccc" d="m-0.0044782152 65.93912l5.9527555 0l0 6.1417313l-5.9527555 0z" fill-rule="evenodd"/><path fill="#cccccc" d="m11.922466 59.959328l6.4566936 0l0 6.1417313l-6.4566936 0z" fill-rule="evenodd"/><path fill="#cccccc" d="m17.885939 59.959328l6.4566936 0l0 6.1417313l-6.4566936 0z" fill-rule="evenodd"/><path fill="#cccccc" d="m17.885939 65.93912l6.4566936 0l0 6.1417313l-6.4566936 0z" fill-rule="evenodd"/><path fill="#cccccc" d="m11.922466 65.93912l5.952757 0l0 6.1417313l-5.952757 0z" fill-rule="evenodd"/><path fill="#cccccc" d="m23.849411 47.999744l6.4566936 0l0 6.141735l-6.4566936 0z" fill-rule="evenodd"/><path fill="#cccccc" d="m29.812883 47.999744l6.4566936 0l0 6.141735l-6.4566936 0z" fill-rule="evenodd"/><path fill="#cccccc" d="m29.812883 53.979538l6.4566936 0l0 6.1417313l-6.4566936 0z" fill-rule="evenodd"/><path fill="#cccccc" d="m23.849411 53.979538l5.952757 0l0 6.1417313l-5.952757 0z" fill-rule="evenodd"/><path fill="#cccccc" d="m35.776356 47.999744l6.4566917 0l0 6.141735l-6.4566917 0z" fill-rule="evenodd"/><path fill="#cccccc" d="m41.73983 47.999744l6.4566917 0l0 6.141735l-6.4566917 0z" fill-rule="evenodd"/><path fill="#cccccc" d="m41.73983 53.979538l6.4566917 0l0 6.1417313l-6.4566917 0z" fill-rule="evenodd"/><path fill="#cccccc" d="m35.776356 53.979538l5.952755 0l0 6.1417313l-5.952755 0z" fill-rule="evenodd"/><path fill="#cccccc" d="m23.849411 59.959328l6.4566936 0l0 6.1417313l-6.4566936 0z" fill-rule="evenodd"/><path fill="#cccccc" d="m29.812883 59.959328l6.4566936 0l0 6.1417313l-6.4566936 0z" fill-rule="evenodd"/><path fill="#cccccc" d="m29.812883 65.93912l6.4566936 0l0 6.1417313l-6.4566936 0z" fill-rule="evenodd"/><path fill="#cccccc" d="m23.849411 65.93912l5.952757 0l0 6.1417313l-5.952757 0z" fill-rule="evenodd"/><path fill="#cccccc" d="m35.776356 59.959328l6.4566917 0l0 6.1417313l-6.4566917 0z" fill-rule="evenodd"/><path fill="#cccccc" d="m41.73983 59.959328l6.4566917 0l0 6.1417313l-6.4566917 0z" fill-rule="evenodd"/><path fill="#cccccc" d="m41.73983 65.93912l6.4566917 0l0 6.1417313l-6.4566917 0z" fill-rule="evenodd"/><path fill="#cccccc" d="m35.776356 65.93912l5.952755 0l0 6.1417313l-5.952755 0z" fill-rule="evenodd"/><path fill="#cccccc" d="m-0.0044782152 71.91891l6.4566927 0l0 6.1417313l-6.4566927 0z" fill-rule="evenodd"/><path fill="#cccccc" d="m5.9589944 71.91891l6.456693 0l0 6.1417313l-6.456693 0z" fill-rule="evenodd"/><path fill="#cccccc" d="m5.9589944 77.8987l6.456693 0l0 6.141739l-6.456693 0z" fill-rule="evenodd"/><path fill="#cccccc" d="m-0.0044782152 77.8987l5.9527555 0l0 6.141739l-5.9527555 0z" fill-rule="evenodd"/><path fill="#cccccc" d="m11.922466 71.91891l6.4566936 0l0 6.1417313l-6.4566936 0z" fill-rule="evenodd"/><path fill="#cccccc" d="m17.885939 71.91891l6.4566936 0l0 6.1417313l-6.4566936 0z" fill-rule="evenodd"/><path fill="#cccccc" d="m17.885939 77.8987l6.4566936 0l0 6.141739l-6.4566936 0z" fill-rule="evenodd"/><path fill="#cccccc" d="m11.922466 77.8987l5.952757 0l0 6.141739l-5.952757 0z" fill-rule="evenodd"/><path fill="#cccccc" d="m-0.0044782152 83.87849l6.4566927 0l0 6.141739l-6.4566927 0z" fill-rule="evenodd"/><path fill="#cccccc" d="m5.9589944 83.87849l6.456693 0l0 6.141739l-6.456693 0z" fill-rule="evenodd"/><path fill="#cccccc" d="m5.9589944 89.858284l6.456693 0l0 6.1417313l-6.456693 0z" fill-rule="evenodd"/><path stroke="#000000" stroke-width="1.0" stroke-linejoin="round" stroke-linecap="butt" d="m5.9589944 89.858284l6.456693 0l0 6.1417313l-6.456693 0z" fill-rule="evenodd"/><path fill="#cccccc" d="m11.922466 83.87849l6.4566936 0l0 6.141739l-6.4566936 0z" fill-rule="evenodd"/><path fill="#cccccc" d="m17.885939 83.87849l6.4566936 0l0 6.141739l-6.4566936 0z" fill-rule="evenodd"/><path fill="#cccccc" d="m17.885939 89.858284l6.4566936 0l0 6.1417313l-6.4566936 0z" fill-rule="evenodd"/><path stroke="#000000" stroke-width="1.0" stroke-linejoin="round" stroke-linecap="butt" d="m17.885939 89.858284l6.4566936 0l0 6.1417313l-6.4566936 0z" fill-rule="evenodd"/><path fill="#cccccc" d="m11.922466 89.858284l5.952757 0l0 6.1417313l-5.952757 0z" fill-rule="evenodd"/><path stroke="#000000" stroke-width="1.0" stroke-linejoin="round" stroke-linecap="butt" d="m11.922466 89.858284l5.952757 0l0 6.1417313l-5.952757 0z" fill-rule="evenodd"/><path fill="#cccccc" d="m23.849411 71.91891l6.4566936 0l0 6.1417313l-6.4566936 0z" fill-rule="evenodd"/><path fill="#cccccc" d="m29.812883 71.91891l6.4566936 0l0 6.1417313l-6.4566936 0z" fill-rule="evenodd"/><path fill="#cccccc" d="m29.812883 77.8987l6.4566936 0l0 6.141739l-6.4566936 0z" fill-rule="evenodd"/><path fill="#cccccc" d="m23.849411 77.8987l5.952757 0l0 6.141739l-5.952757 0z" fill-rule="evenodd"/><path fill="#cccccc" d="m35.776356 71.91891l6.4566917 0l0 6.1417313l-6.4566917 0z" fill-rule="evenodd"/><path fill="#cccccc" d="m41.73983 71.91891l6.4566917 0l0 6.1417313l-6.4566917 0z" fill-rule="evenodd"/><path fill="#cccccc" d="m41.73983 77.8987l6.4566917 0l0 6.141739l-6.4566917 0z" fill-rule="evenodd"/><path fill="#cccccc" d="m35.776356 77.8987l5.952755 0l0 6.141739l-5.952755 0z" fill-rule="evenodd"/><path fill="#cccccc" d="m23.849411 83.87849l6.4566936 0l0 6.141739l-6.4566936 0z" fill-rule="evenodd"/><path fill="#cccccc" d="m29.812883 83.87849l6.4566936 0l0 6.141739l-6.4566936 0z" fill-rule="evenodd"/><path fill="#cccccc" d="m29.812883 89.858284l6.4566936 0l0 6.1417313l-6.4566936 0z" fill-rule="evenodd"/><path stroke="#000000" stroke-width="1.0" stroke-linejoin="round" stroke-linecap="butt" d="m29.812883 89.858284l6.4566936 0l0 6.1417313l-6.4566936 0z" fill-rule="evenodd"/><path fill="#cccccc" d="m23.849411 89.858284l5.952757 0l0 6.1417313l-5.952757 0z" fill-rule="evenodd"/><path stroke="#000000" stroke-width="1.0" stroke-linejoin="round" stroke-linecap="butt" d="m23.849411 89.858284l5.952757 0l0 6.1417313l-5.952757 0z" fill-rule="evenodd"/><path fill="#cccccc" d="m35.776356 83.87849l6.4566917 0l0 6.141739l-6.4566917 0z" fill-rule="evenodd"/><path fill="#cccccc" d="m41.73983 83.87849l6.4566917 0l0 6.141739l-6.4566917 0z" fill-rule="evenodd"/><path fill="#cccccc" d="m41.73983 89.858284l6.4566917 0l0 6.1417313l-6.4566917 0z" fill-rule="evenodd"/><path stroke="#000000" stroke-width="1.0" stroke-linejoin="round" stroke-linecap="butt" d="m41.73983 89.858284l6.4566917 0l0 6.1417313l-6.4566917 0z" fill-rule="evenodd"/><path fill="#cccccc" d="m35.776356 89.858284l5.952755 0l0 6.1417313l-5.952755 0z" fill-rule="evenodd"/><path stroke="#000000" stroke-width="1.0" stroke-linejoin="round" stroke-linecap="butt" d="m35.776356 89.858284l5.952755 0l0 6.1417313l-5.952755 0z" fill-rule="evenodd"/><path fill="#cccccc" d="m47.7033 47.999744l6.4566917 0l0 6.141735l-6.4566917 0z" fill-rule="evenodd"/><path fill="#cccccc" d="m53.666775 47.999744l6.4566917 0l0 6.141735l-6.4566917 0z" fill-rule="evenodd"/><path fill="#cccccc" d="m53.666775 53.979538l6.4566917 0l0 6.1417313l-6.4566917 0z" fill-rule="evenodd"/><path fill="#cccccc" d="m47.7033 53.979538l5.952755 0l0 6.1417313l-5.952755 0z" fill-rule="evenodd"/><path fill="#cccccc" d="m59.137203 48.040104l6.4566917 0l0 6.1417313l-6.4566917 0z" fill-rule="evenodd"/><path fill="#cccccc" d="m65.10068 48.040104l6.456688 0l0 6.1417313l-6.456688 0z" fill-rule="evenodd"/><path fill="#cccccc" d="m65.10068 54.019894l6.456688 0l0 6.141735l-6.456688 0z" fill-rule="evenodd"/><path fill="#cccccc" d="m59.137203 54.019894l5.952755 0l0 6.141735l-5.952755 0z" fill-rule="evenodd"/><path fill="#cccccc" d="m47.7033 59.959328l6.4566917 0l0 6.1417313l-6.4566917 0z" fill-rule="evenodd"/><path fill="#cccccc" d="m53.666775 59.959328l6.4566917 0l0 6.1417313l-6.4566917 0z" fill-rule="evenodd"/><path fill="#cccccc" d="m53.666775 65.93912l6.4566917 0l0 6.1417313l-6.4566917 0z" fill-rule="evenodd"/><path fill="#cccccc" d="m47.7033 65.93912l5.952755 0l0 6.1417313l-5.952755 0z" fill-rule="evenodd"/><path fill="#cccccc" d="m59.630245 59.959328l6.4566917 0l0 6.1417313l-6.4566917 0z" fill-rule="evenodd"/><path fill="#cccccc" d="m65.59372 59.959328l6.4566956 0l0 6.1417313l-6.4566956 0z" fill-rule="evenodd"/><path fill="#b7b7b7" d="m65.59372 65.93912l6.4566956 0l0 6.1417313l-6.4566956 0z" fill-rule="evenodd"/><path fill="#cccccc" d="m59.630245 65.93912l5.952755 0l0 6.1417313l-5.952755 0z" fill-rule="evenodd"/><path fill="#cccccc" d="m71.06415 48.040104l6.4566956 0l0 6.1417313l-6.4566956 0z" fill-rule="evenodd"/><path fill="#cccccc" d="m77.02762 48.040104l6.4566956 0l0 6.1417313l-6.4566956 0z" fill-rule="evenodd"/><path fill="#cccccc" d="m77.02762 54.019894l6.4566956 0l0 6.141735l-6.4566956 0z" fill-rule="evenodd"/><path fill="#cccccc" d="m71.06415 54.019894l5.952759 0l0 6.141735l-5.952759 0z" fill-rule="evenodd"/><path fill="#cccccc" d="m82.99109 48.040104l6.4566956 0l0 6.1417313l-6.4566956 0z" fill-rule="evenodd"/><path fill="#cccccc" d="m88.95457 48.040104l6.456688 0l0 6.1417313l-6.456688 0z" fill-rule="evenodd"/><path fill="#cccccc" d="m88.95457 54.019894l6.456688 0l0 6.141735l-6.456688 0z" fill-rule="evenodd"/><path fill="#cccccc" d="m82.99109 54.019894l5.952759 0l0 6.141735l-5.952759 0z" fill-rule="evenodd"/><path fill="#cccccc" d="m71.55719 59.959328l6.4566956 0l0 6.1417313l-6.4566956 0z" fill-rule="evenodd"/><path fill="#cccccc" d="m77.52066 59.959328l6.4566956 0l0 6.1417313l-6.4566956 0z" fill-rule="evenodd"/><path fill="#b7b7b7" d="m77.52066 65.93912l6.4566956 0l0 6.1417313l-6.4566956 0z" fill-rule="evenodd"/><path fill="#b7b7b7" d="m71.55719 65.93912l5.952759 0l0 6.1417313l-5.952759 0z" fill-rule="evenodd"/><path fill="#cccccc" d="m83.48414 59.959328l6.456688 0l0 6.1417313l-6.456688 0z" fill-rule="evenodd"/><path fill="#cccccc" d="m89.44761 59.959328l6.4566956 0l0 6.1417313l-6.4566956 0z" fill-rule="evenodd"/><path fill="#cccccc" d="m89.44761 65.93912l6.4566956 0l0 6.1417313l-6.4566956 0z" fill-rule="evenodd"/><path fill="#cccccc" d="m83.48414 65.93912l5.952751 0l0 6.1417313l-5.952751 0z" fill-rule="evenodd"/><path fill="#cccccc" d="m47.7033 71.91891l6.4566917 0l0 6.1417313l-6.4566917 0z" fill-rule="evenodd"/><path fill="#cccccc" d="m53.666775 71.91891l6.4566917 0l0 6.1417313l-6.4566917 0z" fill-rule="evenodd"/><path fill="#cccccc" d="m53.666775 77.8987l6.4566917 0l0 6.141739l-6.4566917 0z" fill-rule="evenodd"/><path fill="#cccccc" d="m47.7033 77.8987l5.952755 0l0 6.141739l-5.952755 0z" fill-rule="evenodd"/><path fill="#cccccc" d="m59.630245 71.91891l6.4566917 0l0 6.1417313l-6.4566917 0z" fill-rule="evenodd"/><path fill="#cccccc" d="m65.59372 71.91891l6.4566956 0l0 6.1417313l-6.4566956 0z" fill-rule="evenodd"/><path fill="#cccccc" d="m65.59372 77.8987l6.4566956 0l0 6.141739l-6.4566956 0z" fill-rule="evenodd"/><path fill="#cccccc" d="m59.630245 77.8987l5.952755 0l0 6.141739l-5.952755 0z" fill-rule="evenodd"/><path fill="#cccccc" d="m47.7033 83.87849l6.4566917 0l0 6.141739l-6.4566917 0z" fill-rule="evenodd"/><path fill="#cccccc" d="m53.666775 83.87849l6.4566917 0l0 6.141739l-6.4566917 0z" fill-rule="evenodd"/><path fill="#cccccc" d="m53.666775 89.858284l6.4566917 0l0 6.1417313l-6.4566917 0z" fill-rule="evenodd"/><path stroke="#000000" stroke-width="1.0" stroke-linejoin="round" stroke-linecap="butt" d="m53.666775 89.858284l6.4566917 0l0 6.1417313l-6.4566917 0z" fill-rule="evenodd"/><path fill="#cccccc" d="m47.7033 89.858284l5.952755 0l0 6.1417313l-5.952755 0z" fill-rule="evenodd"/><path stroke="#000000" stroke-width="1.0" stroke-linejoin="round" stroke-linecap="butt" d="m47.7033 89.858284l5.952755 0l0 6.1417313l-5.952755 0z" fill-rule="evenodd"/><path fill="#cccccc" d="m-0.0044782152 89.858284l5.9527555 0l0 6.1417313l-5.9527555 0z" fill-rule="evenodd"/><path stroke="#000000" stroke-width="1.0" stroke-linejoin="round" stroke-linecap="butt" d="m-0.0044782152 89.858284l5.9527555 0l0 6.1417313l-5.9527555 0z" fill-rule="evenodd"/><path fill="#cccccc" d="m59.630245 83.87849l6.4566917 0l0 6.141739l-6.4566917 0z" fill-rule="evenodd"/><path fill="#cccccc" d="m65.59372 83.87849l6.4566956 0l0 6.141739l-6.4566956 0z" fill-rule="evenodd"/><path fill="#cccccc" d="m65.59372 89.858284l6.4566956 0l0 6.1417313l-6.4566956 0z" fill-rule="evenodd"/><path stroke="#000000" stroke-width="1.0" stroke-linejoin="round" stroke-linecap="butt" d="m65.59372 89.858284l6.4566956 0l0 6.1417313l-6.4566956 0z" fill-rule="evenodd"/><path fill="#cccccc" d="m59.630245 89.858284l5.952755 0l0 6.1417313l-5.952755 0z" fill-rule="evenodd"/><path stroke="#000000" stroke-width="1.0" stroke-linejoin="round" stroke-linecap="butt" d="m59.630245 89.858284l5.952755 0l0 6.1417313l-5.952755 0z" fill-rule="evenodd"/><path fill="#cccccc" d="m71.55719 71.91891l6.4566956 0l0 6.1417313l-6.4566956 0z" fill-rule="evenodd"/><path fill="#cccccc" d="m77.52066 71.91891l6.4566956 0l0 6.1417313l-6.4566956 0z" fill-rule="evenodd"/><path fill="#cccccc" d="m77.52066 77.8987l6.4566956 0l0 6.141739l-6.4566956 0z" fill-rule="evenodd"/><path fill="#cccccc" d="m71.55719 77.8987l5.952759 0l0 6.141739l-5.952759 0z" fill-rule="evenodd"/><path fill="#cccccc" d="m83.48414 71.91891l6.456688 0l0 6.1417313l-6.456688 0z" fill-rule="evenodd"/><path fill="#cccccc" d="m89.44761 71.91891l6.4566956 0l0 6.1417313l-6.4566956 0z" fill-rule="evenodd"/><path fill="#cccccc" d="m89.44761 77.8987l6.4566956 0l0 6.141739l-6.4566956 0z" fill-rule="evenodd"/><path fill="#cccccc" d="m83.48414 77.8987l5.952751 0l0 6.141739l-5.952751 0z" fill-rule="evenodd"/><path fill="#cccccc" d="m71.55719 83.87849l6.4566956 0l0 6.141739l-6.4566956 0z" fill-rule="evenodd"/><path fill="#cccccc" d="m77.52066 83.87849l6.4566956 0l0 6.141739l-6.4566956 0z" fill-rule="evenodd"/><path fill="#cccccc" d="m77.52066 89.858284l6.4566956 0l0 6.1417313l-6.4566956 0z" fill-rule="evenodd"/><path stroke="#000000" stroke-width="1.0" stroke-linejoin="round" stroke-linecap="butt" d="m77.52066 89.858284l6.4566956 0l0 6.1417313l-6.4566956 0z" fill-rule="evenodd"/><path fill="#cccccc" d="m71.55719 89.858284l5.952759 0l0 6.1417313l-5.952759 0z" fill-rule="evenodd"/><path stroke="#000000" stroke-width="1.0" stroke-linejoin="round" stroke-linecap="butt" d="m71.55719 89.858284l5.952759 0l0 6.1417313l-5.952759 0z" fill-rule="evenodd"/><path fill="#cccccc" d="m83.48414 83.87849l6.456688 0l0 6.141739l-6.456688 0z" fill-rule="evenodd"/><path fill="#cccccc" d="m89.44761 83.87849l6.4566956 0l0 6.141739l-6.4566956 0z" fill-rule="evenodd"/><path fill="#cccccc" d="m89.44761 89.858284l6.4566956 0l0 6.1417313l-6.4566956 0z" fill-rule="evenodd"/><path stroke="#000000" stroke-width="1.0" stroke-linejoin="round" stroke-linecap="butt" d="m89.44761 89.858284l6.4566956 0l0 6.1417313l-6.4566956 0z" fill-rule="evenodd"/><path fill="#cccccc" d="m83.48414 89.858284l5.952751 0l0 6.1417313l-5.952751 0z" fill-rule="evenodd"/><path stroke="#000000" stroke-width="1.0" stroke-linejoin="round" stroke-linecap="butt" d="m83.48414 89.858284l5.952751 0l0 6.1417313l-5.952751 0z" fill-rule="evenodd"/><path fill="#cccccc" d="m11.922466 -1.3648294E-5l6.4566936 0l0 6.1417327l-6.4566936 0z" fill-rule="evenodd"/><path fill="#cccccc" d="m17.885939 -1.3648294E-5l6.4566936 0l0 6.1417327l-6.4566936 0z" fill-rule="evenodd"/><path fill="#cccccc" d="m17.885939 5.9797773l6.4566936 0l0 6.141732l-6.4566936 0z" fill-rule="evenodd"/><path fill="#cccccc" d="m11.922466 5.9797773l5.952757 0l0 6.141732l-5.952757 0z" fill-rule="evenodd"/><path fill="#cccccc" d="m23.849411 -1.3648294E-5l6.4566936 0l0 6.1417327l-6.4566936 0z" fill-rule="evenodd"/><path fill="#cccccc" d="m29.812883 -1.3648294E-5l6.4566936 0l0 6.1417327l-6.4566936 0z" fill-rule="evenodd"/><path fill="#cccccc" d="m29.812883 5.9797773l6.4566936 0l0 6.141732l-6.4566936 0z" fill-rule="evenodd"/><path fill="#cccccc" d="m23.849411 5.9797773l5.952757 0l0 6.141732l-5.952757 0z" fill-rule="evenodd"/><path fill="#cccccc" d="m35.776356 -1.3648294E-5l6.4566917 0l0 6.1417327l-6.4566917 0z" fill-rule="evenodd"/><path fill="#cccccc" d="m41.73983 -1.3648294E-5l6.4566917 0l0 6.1417327l-6.4566917 0z" fill-rule="evenodd"/><path fill="#cccccc" d="m41.73983 5.9797773l6.4566917 0l0 6.141732l-6.4566917 0z" fill-rule="evenodd"/><path fill="#cccccc" d="m35.776356 5.9797773l5.952755 0l0 6.141732l-5.952755 0z" fill-rule="evenodd"/><path fill="#cccccc" d="m47.7033 -1.3648294E-5l6.4566917 0l0 6.1417327l-6.4566917 0z" fill-rule="evenodd"/><path fill="#cccccc" d="m53.666775 -1.3648294E-5l6.4566917 0l0 6.1417327l-6.4566917 0z" fill-rule="evenodd"/><path fill="#cccccc" d="m53.666775 5.9797773l6.4566917 0l0 6.141732l-6.4566917 0z" fill-rule="evenodd"/><path fill="#cccccc" d="m47.7033 5.9797773l5.952755 0l0 6.141732l-5.952755 0z" fill-rule="evenodd"/><path fill="#cccccc" d="m59.630245 -1.3648294E-5l6.4566917 0l0 6.1417327l-6.4566917 0z" fill-rule="evenodd"/><path fill="#cccccc" d="m65.59372 -1.3648294E-5l6.4566956 0l0 6.1417327l-6.4566956 0z" fill-rule="evenodd"/><path fill="#cccccc" d="m65.59372 5.9797773l6.4566956 0l0 6.141732l-6.4566956 0z" fill-rule="evenodd"/><path fill="#cccccc" d="m59.630245 5.9797773l5.952755 0l0 6.141732l-5.952755 0z" fill-rule="evenodd"/><path fill="#cccccc" d="m71.55719 -1.3648294E-5l6.4566956 0l0 6.1417327l-6.4566956 0z" fill-rule="evenodd"/><path fill="#cccccc" d="m77.52066 -1.3648294E-5l6.4566956 0l0 6.1417327l-6.4566956 0z" fill-rule="evenodd"/><path fill="#cccccc" d="m77.52066 5.9797773l6.4566956 0l0 6.141732l-6.4566956 0z" fill-rule="evenodd"/><path fill="#cccccc" d="m71.55719 5.9797773l5.952759 0l0 6.141732l-5.952759 0z" fill-rule="evenodd"/><path fill="#cccccc" d="m83.48414 -1.3648294E-5l6.456688 0l0 6.1417327l-6.456688 0z" fill-rule="evenodd"/><path fill="#cccccc" d="m89.44761 -1.3648294E-5l6.4566956 0l0 6.1417327l-6.4566956 0z" fill-rule="evenodd"/><path fill="#cccccc" d="m89.44761 5.9797773l6.4566956 0l0 6.141732l-6.4566956 0z" fill-rule="evenodd"/><path fill="#cccccc" d="m83.48414 5.9797773l5.952751 0l0 6.141732l-5.952751 0z" fill-rule="evenodd"/><path fill="#cccccc" d="m22.222044 50.866814l7.6445675 0l0 6.136509l-7.6445675 0z" fill-rule="evenodd"/><path fill="#cccccc" d="m15.161245 50.866814l7.0607986 0l0 6.136509l-7.0607986 0z" fill-rule="evenodd"/><path fill="#cccccc" d="m36.343643 50.866814l7.6445694 0l0 6.136509l-7.6445694 0z" fill-rule="evenodd"/><path fill="#cccccc" d="m29.282845 50.866814l7.0607986 0l0 6.136509l-7.0607986 0z" fill-rule="evenodd"/><path fill="#cccccc" d="m15.161245 56.842014l7.6445656 0l0 6.136509l-7.6445656 0z" fill-rule="evenodd"/><path fill="#cccccc" d="m22.222044 56.842014l7.6445675 0l0 6.136509l-7.6445675 0z" fill-rule="evenodd"/><path fill="#cccccc" d="m22.222044 62.81721l7.6445675 0l0 6.136509l-7.6445675 0z" fill-rule="evenodd"/><path fill="#cccccc" d="m15.161245 62.81721l7.0607986 0l0 6.136509l-7.0607986 0z" fill-rule="evenodd"/><path fill="#999999" d="m29.282845 56.842014l7.6445656 0l0 6.136509l-7.6445656 0z" fill-rule="evenodd"/><path fill="#999999" d="m36.343643 56.842014l7.6445694 0l0 6.136509l-7.6445694 0z" fill-rule="evenodd"/><path fill="#cccccc" d="m36.343643 62.81721l7.6445694 0l0 6.136509l-7.6445694 0z" fill-rule="evenodd"/><path fill="#cccccc" d="m29.282845 62.81721l7.0607986 0l0 6.136509l-7.0607986 0z" fill-rule="evenodd"/><path fill="#cccccc" d="m50.465244 50.866814l7.6445694 0l0 6.136509l-7.6445694 0z" fill-rule="evenodd"/><path fill="#cccccc" d="m43.404446 50.866814l7.0607986 0l0 6.136509l-7.0607986 0z" fill-rule="evenodd"/><path fill="#cccccc" d="m57.526047 50.866814l7.0607986 0l0 6.136509l-7.0607986 0z" fill-rule="evenodd"/><path fill="#999999" d="m43.404446 56.842014l7.6445656 0l0 6.136509l-7.6445656 0z" fill-rule="evenodd"/><path fill="#d9d9d9" d="m50.465244 56.842014l7.6445694 0l0 6.136509l-7.6445694 0z" fill-rule="evenodd"/><path fill="#cccccc" d="m50.465244 62.81721l7.6445694 0l0 6.136509l-7.6445694 0z" fill-rule="evenodd"/><path fill="#cccccc" d="m43.404446 62.81721l7.0607986 0l0 6.136509l-7.0607986 0z" fill-rule="evenodd"/><path fill="#cccccc" d="m57.526047 56.842014l7.644562 0l0 6.136509l-7.644562 0z" fill-rule="evenodd"/><path fill="#cccccc" d="m57.526047 62.81721l7.0607986 0l0 6.136509l-7.0607986 0z" fill-rule="evenodd"/><path fill="#cccccc" d="m59.63008 35.999805l6.4566956 0l0 6.1417313l-6.4566956 0z" fill-rule="evenodd"/><path fill="#cccccc" d="m65.59355 35.999805l6.4566956 0l0 6.1417313l-6.4566956 0z" fill-rule="evenodd"/><path fill="#cccccc" d="m65.59355 41.979595l6.4566956 0l0 6.141735l-6.4566956 0z" fill-rule="evenodd"/><path fill="#cccccc" d="m59.63008 41.979595l5.952759 0l0 6.141735l-5.952759 0z" fill-rule="evenodd"/><path fill="#999999" d="m71.55703 35.999805l6.456688 0l0 6.1417313l-6.456688 0z" fill-rule="evenodd"/><path fill="#999999" d="m77.5205 35.999805l6.4566956 0l0 6.1417313l-6.4566956 0z" fill-rule="evenodd"/><path fill="#cccccc" d="m77.5205 41.979595l6.4566956 0l0 6.141735l-6.4566956 0z" fill-rule="evenodd"/><path fill="#cccccc" d="m71.55703 41.979595l5.952751 0l0 6.141735l-5.952751 0z" fill-rule="evenodd"/><path fill="#999999" d="m83.48397 35.999805l6.4566956 0l0 6.1417313l-6.4566956 0z" fill-rule="evenodd"/><path fill="#999999" d="m89.44744 35.999805l6.4566956 0l0 6.1417313l-6.4566956 0z" fill-rule="evenodd"/><path fill="#cccccc" d="m89.44744 41.979595l6.4566956 0l0 6.141735l-6.4566956 0z" fill-rule="evenodd"/><path fill="#cccccc" d="m83.48397 41.979595l5.952759 0l0 6.141735l-5.952759 0z" fill-rule="evenodd"/><path fill="#cccccc" d="m59.63008 47.95939l6.4566956 0l0 6.1417313l-6.4566956 0z" fill-rule="evenodd"/><path fill="#cccccc" d="m65.59355 47.95939l6.4566956 0l0 6.1417313l-6.4566956 0z" fill-rule="evenodd"/><path fill="#cccccc" d="m65.59355 53.93918l6.4566956 0l0 6.1417313l-6.4566956 0z" fill-rule="evenodd"/><path fill="#cccccc" d="m59.63008 53.93918l5.952759 0l0 6.1417313l-5.952759 0z" fill-rule="evenodd"/><path fill="#cccccc" d="m71.55703 47.95939l6.456688 0l0 6.1417313l-6.456688 0z" fill-rule="evenodd"/><path fill="#cccccc" d="m77.5205 47.95939l6.4566956 0l0 6.1417313l-6.4566956 0z" fill-rule="evenodd"/><path fill="#cccccc" d="m77.5205 53.93918l6.4566956 0l0 6.1417313l-6.4566956 0z" fill-rule="evenodd"/><path fill="#cccccc" d="m71.55703 53.93918l5.952751 0l0 6.1417313l-5.952751 0z" fill-rule="evenodd"/><path fill="#cccccc" d="m83.48397 47.95939l6.4566956 0l0 6.1417313l-6.4566956 0z" fill-rule="evenodd"/><path fill="#999999" d="m89.44744 47.95939l6.4566956 0l0 6.1417313l-6.4566956 0z" fill-rule="evenodd"/><path fill="#cccccc" d="m89.44744 53.93918l6.4566956 0l0 6.1417313l-6.4566956 0z" fill-rule="evenodd"/><path fill="#cccccc" d="m83.48397 53.93918l5.952759 0l0 6.1417313l-5.952759 0z" fill-rule="evenodd"/><path fill="#cccccc" d="m17.805058 75.39079l12.83622 0l0 6.1365128l-12.83622 0z" fill-rule="evenodd"/><path fill="#cccccc" d="m5.949057 75.39079l11.856001 0l0 6.1365128l-11.856001 0z" fill-rule="evenodd"/><path fill="#cccccc" d="m41.517056 75.39079l12.836224 0l0 6.1365128l-12.836224 0z" fill-rule="evenodd"/><path fill="#cccccc" d="m29.661057 75.39079l11.855999 0l0 6.1365128l-11.855999 0z" fill-rule="evenodd"/><path fill="#cccccc" d="m5.949057 81.36599l12.836222 0l0 6.1365128l-12.836222 0z" fill-rule="evenodd"/><path fill="#cccccc" d="m17.805058 81.36599l12.83622 0l0 6.1365128l-12.83622 0z" fill-rule="evenodd"/><path fill="#cccccc" d="m17.805058 87.341194l12.83622 0l0 6.1365128l-12.83622 0z" fill-rule="evenodd"/><path fill="#cccccc" d="m5.949057 87.341194l11.856001 0l0 6.1365128l-11.856001 0z" fill-rule="evenodd"/><path fill="#999999" d="m29.661057 81.36599l12.83622 0l0 6.1365128l-12.83622 0z" fill-rule="evenodd"/><path fill="#b7b7b7" d="m41.517056 81.36599l12.836224 0l0 6.1365128l-12.836224 0z" fill-rule="evenodd"/><path fill="#cccccc" d="m41.517056 87.341194l12.836224 0l0 6.1365128l-12.836224 0z" fill-rule="evenodd"/><path fill="#cccccc" d="m29.661057 87.341194l11.855999 0l0 6.1365128l-11.855999 0z" fill-rule="evenodd"/><path fill="#cccccc" d="m65.22906 75.39079l12.83622 0l0 6.1365128l-12.83622 0z" fill-rule="evenodd"/><path fill="#cccccc" d="m53.37306 75.39079l11.855999 0l0 6.1365128l-11.855999 0z" fill-rule="evenodd"/><path fill="#cccccc" d="m77.08506 75.39079l11.855995 0l0 6.1365128l-11.855995 0z" fill-rule="evenodd"/><path fill="#cccccc" d="m16.965496 47.89804l12.836222 0l0 6.136509l-12.836222 0z" fill-rule="evenodd"/><path fill="#999999" d="m65.22906 81.36599l12.83622 0l0 6.1365128l-12.83622 0z" fill-rule="evenodd"/><path fill="#cccccc" d="m65.22906 87.341194l12.83622 0l0 6.1365128l-12.83622 0z" fill-rule="evenodd"/><path fill="#cccccc" d="m53.37306 87.341194l11.855999 0l0 6.1365128l-11.855999 0z" fill-rule="evenodd"/><path fill="#cccccc" d="m77.08506 81.36599l12.83622 0l0 6.1365128l-12.83622 0z" fill-rule="evenodd"/><path fill="#cccccc" d="m77.08506 87.341194l11.855995 0l0 6.1365128l-11.855995 0z" fill-rule="evenodd"/><path fill="#b7b7b7" d="m-0.004519685 70.383606l17.889765 0l0 6.1417313l-17.889765 0z" fill-rule="evenodd"/><path fill="#cccccc" d="m40.035698 -1.3648294E-5l6.4566956 0l0 6.1417327l-6.4566956 0z" fill-rule="evenodd"/><path fill="#cccccc" d="m45.999172 -1.3648294E-5l6.4566917 0l0 6.1417327l-6.4566917 0z" fill-rule="evenodd"/><path fill="#cccccc" d="m45.999172 5.9797773l6.4566917 0l0 6.141732l-6.4566917 0z" fill-rule="evenodd"/><path fill="#cccccc" d="m40.035698 5.9797773l5.952759 0l0 6.141732l-5.952759 0z" fill-rule="evenodd"/><path fill="#cccccc" d="m51.962646 -1.3648294E-5l6.4566917 0l0 6.1417327l-6.4566917 0z" fill-rule="evenodd"/><path fill="#999999" d="m57.926117 -1.3648294E-5l6.4566956 0l0 6.1417327l-6.4566956 0z" fill-rule="evenodd"/><path fill="#cccccc" d="m57.926117 5.9797773l6.4566956 0l0 6.141732l-6.4566956 0z" fill-rule="evenodd"/><path fill="#cccccc" d="m51.962646 5.9797773l5.952755 0l0 6.141732l-5.952755 0z" fill-rule="evenodd"/><path fill="#999999" d="m63.88959 -1.3648294E-5l6.4566917 0l0 6.1417327l-6.4566917 0z" fill-rule="evenodd"/><path fill="#999999" d="m69.853065 -1.3648294E-5l6.456688 0l0 6.1417327l-6.456688 0z" fill-rule="evenodd"/><path fill="#cccccc" d="m69.853065 5.9797773l6.456688 0l0 6.141732l-6.456688 0z" fill-rule="evenodd"/><path fill="#cccccc" d="m63.88959 5.9797773l5.952755 0l0 6.141732l-5.952755 0z" fill-rule="evenodd"/><path fill="#999999" d="m75.816536 -1.3648294E-5l6.456688 0l0 6.1417327l-6.456688 0z" fill-rule="evenodd"/><path fill="#999999" d="m81.78001 -1.3648294E-5l6.4566956 0l0 6.1417327l-6.4566956 0z" fill-rule="evenodd"/><path fill="#cccccc" d="m81.78001 5.9797773l6.4566956 0l0 6.141732l-6.4566956 0z" fill-rule="evenodd"/><path fill="#cccccc" d="m75.816536 5.9797773l5.952751 0l0 6.141732l-5.952751 0z" fill-rule="evenodd"/><path fill="#999999" d="m87.74348 -1.3648294E-5l6.4566956 0l0 6.1417327l-6.4566956 0z" fill-rule="evenodd"/><path fill="#cccccc" d="m87.74348 5.9797773l5.952759 0l0 6.141732l-5.952759 0z" fill-rule="evenodd"/><path fill="#cccccc" d="m0.048834644 71.90842l6.459685 0l0 6.1365128l-6.459685 0z" fill-rule="evenodd"/><path fill="#cccccc" d="m6.0152345 71.90842l6.459685 0l0 6.1365128l-6.459685 0z" fill-rule="evenodd"/><path fill="#cccccc" d="m6.0152345 77.88361l6.459685 0l0 6.1365128l-6.459685 0z" fill-rule="evenodd"/><path fill="#cccccc" d="m0.048834644 77.88361l5.9663997 0l0 6.1365128l-5.9663997 0z" fill-rule="evenodd"/><path fill="#cccccc" d="m11.981635 71.90842l6.4596853 0l0 6.1365128l-6.4596853 0z" fill-rule="evenodd"/><path fill="#cccccc" d="m17.948034 71.90842l6.4596863 0l0 6.1365128l-6.4596863 0z" fill-rule="evenodd"/><path fill="#cccccc" d="m17.948034 77.88361l6.4596863 0l0 6.1365128l-6.4596863 0z" fill-rule="evenodd"/><path fill="#cccccc" d="m11.981635 77.88361l5.966399 0l0 6.1365128l-5.966399 0z" fill-rule="evenodd"/><path fill="#cccccc" d="m23.914434 71.90842l6.4596844 0l0 6.1365128l-6.4596844 0z" fill-rule="evenodd"/><path fill="#cccccc" d="m29.880835 71.90842l6.4596844 0l0 6.1365128l-6.4596844 0z" fill-rule="evenodd"/><path fill="#cccccc" d="m29.880835 77.88361l6.4596844 0l0 6.1365128l-6.4596844 0z" fill-rule="evenodd"/><path fill="#cccccc" d="m23.914434 77.88361l5.9664 0l0 6.1365128l-5.9664 0z" fill-rule="evenodd"/><path fill="#cccccc" d="m35.847233 71.90842l6.4596863 0l0 6.1365128l-6.4596863 0z" fill-rule="evenodd"/><path fill="#cccccc" d="m41.813633 71.90842l6.4596863 0l0 6.1365128l-6.4596863 0z" fill-rule="evenodd"/><path fill="#cccccc" d="m41.813633 77.88361l6.4596863 0l0 6.1365128l-6.4596863 0z" fill-rule="evenodd"/><path fill="#cccccc" d="m35.847233 77.88361l5.9664 0l0 6.1365128l-5.9664 0z" fill-rule="evenodd"/><path fill="#cccccc" d="m0.048834644 83.85882l6.459685 0l0 6.136505l-6.459685 0z" fill-rule="evenodd"/><path fill="#cccccc" d="m6.0152345 83.85882l6.459685 0l0 6.136505l-6.459685 0z" fill-rule="evenodd"/><path fill="#cccccc" d="m6.0152345 89.834015l6.459685 0l0 6.1365128l-6.459685 0z" fill-rule="evenodd"/><path fill="#cccccc" d="m0.048834644 89.834015l5.9663997 0l0 6.1365128l-5.9663997 0z" fill-rule="evenodd"/><path fill="#cccccc" d="m11.981635 83.85882l6.4596853 0l0 6.136505l-6.4596853 0z" fill-rule="evenodd"/><path fill="#cccccc" d="m17.948034 83.85882l6.4596863 0l0 6.136505l-6.4596863 0z" fill-rule="evenodd"/><path fill="#cccccc" d="m17.948034 89.834015l6.4596863 0l0 6.1365128l-6.4596863 0z" fill-rule="evenodd"/><path fill="#cccccc" d="m11.981635 89.834015l5.966399 0l0 6.1365128l-5.966399 0z" fill-rule="evenodd"/><path fill="#cccccc" d="m23.914434 83.85882l6.4596844 0l0 6.136505l-6.4596844 0z" fill-rule="evenodd"/><path fill="#cccccc" d="m29.880835 83.85882l6.4596844 0l0 6.136505l-6.4596844 0z" fill-rule="evenodd"/><path fill="#cccccc" d="m29.880835 89.834015l6.4596844 0l0 6.1365128l-6.4596844 0z" fill-rule="evenodd"/><path fill="#cccccc" d="m23.914434 89.834015l5.9664 0l0 6.1365128l-5.9664 0z" fill-rule="evenodd"/><path fill="#cccccc" d="m35.847233 83.85882l6.4596863 0l0 6.136505l-6.4596863 0z" fill-rule="evenodd"/><path fill="#cccccc" d="m41.813633 83.85882l6.4596863 0l0 6.136505l-6.4596863 0z" fill-rule="evenodd"/><path fill="#cccccc" d="m41.813633 89.834015l6.4596863 0l0 6.1365128l-6.4596863 0z" fill-rule="evenodd"/><path fill="#cccccc" d="m35.847233 89.834015l5.9664 0l0 6.1365128l-5.9664 0z" fill-rule="evenodd"/><path fill="#cccccc" d="m47.780033 71.90842l6.4596863 0l0 6.1365128l-6.4596863 0z" fill-rule="evenodd"/><path fill="#cccccc" d="m53.746433 71.90842l6.4596863 0l0 6.1365128l-6.4596863 0z" fill-rule="evenodd"/><path fill="#cccccc" d="m53.746433 77.88361l6.4596863 0l0 6.1365128l-6.4596863 0z" fill-rule="evenodd"/><path fill="#cccccc" d="m47.780033 77.88361l5.9664 0l0 6.1365128l-5.9664 0z" fill-rule="evenodd"/><path fill="#cccccc" d="m59.712833 71.90842l6.45969 0l0 6.1365128l-6.45969 0z" fill-rule="evenodd"/><path fill="#cccccc" d="m65.67924 71.90842l6.4596786 0l0 6.1365128l-6.4596786 0z" fill-rule="evenodd"/><path fill="#cccccc" d="m65.67924 77.88361l6.4596786 0l0 6.1365128l-6.4596786 0z" fill-rule="evenodd"/><path fill="#cccccc" d="m59.712833 77.88361l5.966404 0l0 6.1365128l-5.966404 0z" fill-rule="evenodd"/><path fill="#cccccc" d="m71.64564 71.90842l6.4596786 0l0 6.1365128l-6.4596786 0z" fill-rule="evenodd"/><path fill="#cccccc" d="m77.61204 71.90842l6.4596786 0l0 6.1365128l-6.4596786 0z" fill-rule="evenodd"/><path fill="#cccccc" d="m77.61204 77.88361l6.4596786 0l0 6.1365128l-6.4596786 0z" fill-rule="evenodd"/><path fill="#cccccc" d="m71.64564 77.88361l5.9664 0l0 6.1365128l-5.9664 0z" fill-rule="evenodd"/><path fill="#cccccc" d="m83.57844 71.90842l6.4596786 0l0 6.1365128l-6.4596786 0z" fill-rule="evenodd"/><path fill="#cccccc" d="m89.54484 71.90842l6.4596786 0l0 6.1365128l-6.4596786 0z" fill-rule="evenodd"/><path fill="#cccccc" d="m89.54484 77.88361l6.4596786 0l0 6.1365128l-6.4596786 0z" fill-rule="evenodd"/><path fill="#cccccc" d="m83.57844 77.88361l5.9664 0l0 6.1365128l-5.9664 0z" fill-rule="evenodd"/><path fill="#cccccc" d="m47.780033 83.85882l6.4596863 0l0 6.136505l-6.4596863 0z" fill-rule="evenodd"/><path fill="#cccccc" d="m53.746433 83.85882l6.4596863 0l0 6.136505l-6.4596863 0z" fill-rule="evenodd"/><path fill="#cccccc" d="m53.746433 89.834015l6.4596863 0l0 6.1365128l-6.4596863 0z" fill-rule="evenodd"/><path fill="#cccccc" d="m47.780033 89.834015l5.9664 0l0 6.1365128l-5.9664 0z" fill-rule="evenodd"/><path fill="#cccccc" d="m59.712833 83.85882l6.45969 0l0 6.136505l-6.45969 0z" fill-rule="evenodd"/><path fill="#cccccc" d="m65.67924 83.85882l6.4596786 0l0 6.136505l-6.4596786 0z" fill-rule="evenodd"/><path fill="#cccccc" d="m65.67924 89.834015l6.4596786 0l0 6.1365128l-6.4596786 0z" fill-rule="evenodd"/><path fill="#cccccc" d="m59.712833 89.834015l5.966404 0l0 6.1365128l-5.966404 0z" fill-rule="evenodd"/><path fill="#cccccc" d="m71.64564 83.85882l6.4596786 0l0 6.136505l-6.4596786 0z" fill-rule="evenodd"/><path fill="#cccccc" d="m77.61204 83.85882l6.4596786 0l0 6.136505l-6.4596786 0z" fill-rule="evenodd"/><path fill="#cccccc" d="m77.61204 89.834015l6.4596786 0l0 6.1365128l-6.4596786 0z" fill-rule="evenodd"/><path fill="#cccccc" d="m71.64564 89.834015l5.9664 0l0 6.1365128l-5.9664 0z" fill-rule="evenodd"/><path fill="#cccccc" d="m83.57844 83.85882l6.4596786 0l0 6.136505l-6.4596786 0z" fill-rule="evenodd"/><path fill="#cccccc" d="m89.54484 83.85882l6.4596786 0l0 6.136505l-6.4596786 0z" fill-rule="evenodd"/><path fill="#cccccc" d="m89.54484 89.834015l6.4596786 0l0 6.1365128l-6.4596786 0z" fill-rule="evenodd"/><path fill="#cccccc" d="m83.57844 89.834015l5.9664 0l0 6.1365128l-5.9664 0z" fill-rule="evenodd"/></g></svg>