<svg version="1.1" viewBox="0.0 0.0 96.0 96.0" fill="none" stroke="none" stroke-linecap="square" stroke-miterlimit="10" xmlns:xlink="http://www.w3.org/1999/xlink" xmlns="http://www.w3.org/2000/svg"><clipPath id="p.0"><path d="m0 0l96.0 0l0 96.0l-96.0 0l0 -96.0z" clip-rule="nonzero"/></clipPath><g clip-path="url(#p.0)"><path fill="#cccccc" d="m0 0l96.0 0l0 96.0l-96.0 0z" fill-rule="evenodd"/><path fill="#cccccc" d="m5.9589944 77.8987l6.456693 0l0 6.141739l-6.456693 0z" fill-rule="evenodd"/><path fill="#cccccc" d="m-0.0044782152 77.8987l5.9527555 0l0 6.141739l-5.9527555 0z" fill-rule="evenodd"/><path fill="#cccccc" d="m17.885939 77.8987l6.4566936 0l0 6.141739l-6.4566936 0z" fill-rule="evenodd"/><path fill="#cccccc" d="m11.922466 77.8987l5.952757 0l0 6.141739l-5.952757 0z" fill-rule="evenodd"/><path fill="#cccccc" d="m23.849411 77.8987l5.952757 0l0 6.141739l-5.952757 0z" fill-rule="evenodd"/><path fill="#b1b1b1" d="m9.6 9.6l9.606298 0l0 9.606298l-9.606298 0z" fill-rule="evenodd"/><path fill="#b1b1b1" d="m19.2 76.8l9.606298 0l0 9.606293l-9.606298 0z" fill-rule="evenodd"/><path fill="#b1b1b1" d="m67.2 38.4l9.6063 0l0 9.606297l-9.6063 0z" fill-rule="evenodd"/><path fill="#b1b1b1" d="m57.592125 57.6l9.6063 0l0 9.6063l-9.6063 0z" fill-rule="evenodd"/><path fill="#b1b1b1" d="m67.2 19.2l9.6063 0l0 9.606298l-9.6063 0z" fill-rule="evenodd"/><path fill="#e4e4e4" d="m28.8 28.8l9.6063 0l0 9.6063l-9.6063 0z" fill-rule="evenodd"/><path fill="#e4e4e4" d="m38.4 67.2l9.606297 0l0 9.6063l-9.606297 0z" fill-rule="evenodd"/></g></svg>